<svg xmlns="http://www.w3.org/2000/svg" xmlns:xlink="http://www.w3.org/1999/xlink" width="320" zoomAndPan="magnify" viewBox="0 0 240 247.92" height="320" preserveAspectRatio="xMidYMid meet" version="1.0"><defs><clipPath id="83a0939ee9"><path d="M 29.007812 26.757812 L 211 26.757812 L 211 213.445312 L 29.007812 213.445312 Z M 29.007812 26.757812 " clip-rule="nonzero"/></clipPath></defs><g clip-path="url(#83a0939ee9)"><path fill="#ffffff" d="M 155.433594 174.609375 C 154.773438 173.453125 155.160156 171.976562 156.316406 171.316406 C 157.46875 170.640625 158.945312 171.042969 159.617188 172.195312 L 165.566406 182.488281 C 171.761719 181.011719 177.757812 185.710938 177.757812 192.117188 C 177.757812 200.890625 167.085938 205.328125 160.867188 199.105469 C 156.851562 195.078125 157.03125 188.515625 161.277344 184.730469 Z M 117.578125 181.859375 C 117.578125 180.519531 118.652344 179.445312 119.992188 179.445312 C 121.332031 179.445312 122.417969 180.519531 122.417969 181.859375 L 122.417969 191.78125 C 130.652344 193.671875 133.703125 203.964844 127.652344 210.003906 C 120.847656 216.816406 109.160156 211.960938 109.160156 202.351562 C 109.160156 197.253906 112.71875 192.894531 117.574219 191.785156 L 117.574219 181.859375 Z M 122.417969 54.765625 C 122.417969 56.105469 121.332031 57.191406 119.992188 57.191406 C 118.652344 57.191406 117.578125 56.105469 117.578125 54.765625 L 117.578125 48.175781 C 109.34375 46.289062 106.289062 35.996094 112.34375 29.957031 C 119.148438 23.140625 130.824219 28 130.824219 37.605469 C 130.824219 42.707031 127.277344 47.0625 122.421875 48.171875 L 122.421875 54.765625 Z M 79.882812 173.042969 C 80.546875 171.886719 82.023438 171.496094 83.175781 172.164062 C 84.328125 172.835938 84.730469 174.3125 84.054688 175.46875 L 78.703125 184.730469 C 85.472656 190.769531 81.171875 202 72.125 202 C 63.34375 202 58.917969 191.339844 65.136719 185.117188 C 67.527344 182.730469 71.027344 181.6875 74.425781 182.488281 Z M 80.730469 67 C 81.679688 67.949219 81.679688 69.484375 80.730469 70.429688 C 79.796875 71.367188 78.261719 71.367188 77.308594 70.429688 L 67.441406 60.5625 C 60.902344 64.691406 52.273438 60 52.273438 52.203125 C 52.273438 43.417969 62.945312 38.980469 69.15625 45.203125 C 72.289062 48.339844 72.964844 53.1875 70.777344 57.050781 Z M 57.929688 99.261719 C 59.21875 99.605469 59.984375 100.933594 59.628906 102.222656 C 59.289062 103.515625 57.960938 104.28125 56.679688 103.9375 L 38.246094 98.996094 C 37.175781 98.710938 36.453125 97.726562 36.453125 96.664062 L 36.453125 79.074219 C 29.363281 76.910156 27.039062 67.910156 32.34375 62.617188 C 38.554688 56.394531 49.226562 60.820312 49.226562 69.605469 C 49.226562 74.347656 45.851562 78.386719 41.289062 79.304688 L 41.289062 94.8125 Z M 59.46875 142.414062 C 60.761719 142.0625 62.085938 142.828125 62.429688 144.117188 C 62.773438 145.410156 62.007812 146.738281 60.714844 147.078125 L 43.125 151.792969 L 42.289062 160.246094 C 49.058594 162.695312 51.085938 171.410156 45.9375 176.550781 C 39.714844 182.761719 29.042969 178.335938 29.042969 169.550781 C 29.042969 164.621094 32.679688 160.484375 37.484375 159.773438 L 38.480469 149.800781 C 38.511719 148.757812 39.210938 147.832031 40.265625 147.546875 Z M 163.132812 69.976562 C 162.195312 70.921875 160.664062 70.921875 159.710938 69.976562 C 158.761719 69.039062 158.761719 67.507812 159.710938 66.554688 L 169.21875 57.046875 C 165.523438 50.515625 170.234375 42.304688 177.828125 42.304688 C 186.609375 42.304688 191.035156 52.964844 184.828125 59.1875 C 181.554688 62.445312 176.46875 63.027344 172.554688 60.558594 Z M 183.113281 104 C 181.820312 104.339844 180.492188 103.574219 180.152344 102.285156 C 179.808594 100.992188 180.574219 99.664062 181.867188 99.324219 L 198.703125 94.816406 L 198.703125 79.308594 C 191.039062 77.761719 188.078125 68.210938 193.671875 62.621094 C 199.890625 56.398438 210.550781 60.824219 210.550781 69.609375 C 210.550781 74.023438 207.660156 77.820312 203.550781 79.078125 L 203.550781 96.667969 C 203.550781 97.734375 202.828125 98.714844 201.757812 99 Z M 177.507812 146.613281 C 176.21875 146.257812 175.449219 144.941406 175.792969 143.652344 C 176.136719 142.359375 177.464844 141.59375 178.753906 141.9375 L 199.71875 147.550781 C 200.773438 147.839844 201.480469 148.761719 201.515625 149.804688 L 202.511719 159.777344 C 210.484375 160.941406 213.8125 170.789062 208.046875 176.550781 C 201.835938 182.761719 191.164062 178.335938 191.164062 169.550781 C 191.164062 165.320312 193.839844 161.636719 197.707031 160.246094 L 196.859375 151.792969 Z M 87.539062 73.394531 C 91.714844 76.253906 94.648438 80.628906 95.691406 85.605469 C 95.964844 86.910156 95.128906 88.191406 93.828125 88.453125 C 92.511719 88.726562 91.242188 87.894531 90.96875 86.589844 C 90.519531 84.496094 89.640625 82.550781 88.40625 80.859375 C 87.269531 79.316406 85.84375 77.992188 84.171875 76.972656 C 81.1875 76.859375 78.257812 77.507812 75.664062 78.789062 C 67.210938 82.953125 63.496094 93.015625 67.179688 101.675781 C 68.34375 101.960938 69.605469 102.464844 70.644531 103.070312 C 72.109375 103.917969 73.414062 105.039062 74.476562 106.386719 C 75.300781 107.441406 75.117188 108.960938 74.066406 109.785156 C 73.023438 110.609375 71.503906 110.425781 70.679688 109.371094 C 69.996094 108.511719 69.160156 107.796875 68.222656 107.246094 C 67.550781 106.859375 66.808594 106.5625 66.027344 106.367188 C 57.632812 112.339844 55.96875 123.621094 61.25 131.847656 C 63.457031 135.289062 66.863281 138.082031 71.371094 139.464844 C 72.730469 139.558594 74.09375 139.410156 75.398438 139.03125 C 76.769531 138.644531 78.058594 137.988281 79.21875 137.121094 C 80.285156 136.3125 81.792969 136.515625 82.601562 137.570312 C 83.414062 138.636719 83.207031 140.15625 82.148438 140.957031 C 79.171875 143.230469 75.546875 144.410156 71.820312 144.316406 C 65.460938 150.878906 68.183594 161.9375 76.929688 164.753906 C 79.617188 165.613281 82.589844 165.566406 85.359375 164.457031 C 86.984375 163.566406 88.375 162.34375 89.476562 160.890625 C 90.585938 159.402344 91.386719 157.667969 91.777344 155.800781 C 92.050781 154.5 93.335938 153.664062 94.636719 153.9375 C 95.941406 154.199219 96.777344 155.484375 96.515625 156.785156 C 95.554688 161.363281 92.8125 165.375 88.933594 167.9375 C 90.292969 177.453125 100.117188 183.765625 109.292969 179.582031 C 114.484375 177.214844 117.59375 172.375 117.59375 166.660156 L 117.59375 142.484375 L 110.632812 142.484375 L 110.632812 149.359375 C 110.632812 150.699219 109.558594 151.773438 108.21875 151.773438 C 106.878906 151.773438 105.792969 150.699219 105.792969 149.359375 L 105.792969 142.484375 L 99.953125 142.484375 C 98.613281 142.484375 97.527344 141.398438 97.527344 140.058594 L 97.527344 134.214844 L 90.652344 134.214844 C 89.3125 134.214844 88.226562 133.128906 88.226562 131.789062 C 88.226562 130.449219 89.3125 129.375 90.652344 129.375 L 97.527344 129.375 L 97.527344 122.414062 L 82.851562 122.414062 C 81.515625 122.414062 80.429688 121.328125 80.429688 120 C 80.429688 118.660156 81.515625 117.574219 82.851562 117.574219 L 97.527344 117.574219 L 97.527344 110.613281 L 90.652344 110.613281 C 89.3125 110.613281 88.226562 109.539062 88.226562 108.199219 C 88.226562 106.859375 89.3125 105.773438 90.652344 105.773438 L 97.527344 105.773438 L 97.527344 99.929688 C 97.527344 98.589844 98.613281 97.503906 99.953125 97.503906 L 105.777344 97.503906 L 105.777344 90.628906 C 105.777344 89.289062 106.863281 88.214844 108.203125 88.214844 C 109.542969 88.214844 110.613281 89.289062 110.613281 90.628906 L 110.613281 97.503906 L 117.578125 97.503906 L 117.578125 70.773438 C 117.578125 64.828125 113.257812 59.945312 107.332031 59.210938 C 98.066406 58.058594 89.433594 64.257812 87.539062 73.394531 Z M 155.808594 76.976562 C 152.332031 79.101562 149.863281 82.589844 149.027344 86.59375 C 148.753906 87.898438 147.472656 88.730469 146.167969 88.457031 C 144.863281 88.195312 144.03125 86.914062 144.304688 85.609375 C 145.34375 80.632812 148.28125 76.253906 152.445312 73.398438 C 150.558594 64.234375 141.910156 58.0625 132.605469 59.214844 C 126.726562 59.945312 122.449219 64.78125 122.414062 70.765625 L 122.414062 97.496094 L 129.363281 97.496094 L 129.363281 90.621094 C 129.363281 89.28125 130.449219 88.207031 131.789062 88.207031 C 133.128906 88.207031 134.214844 89.28125 134.214844 90.621094 L 134.214844 97.496094 L 140.058594 97.496094 C 141.398438 97.496094 142.484375 98.582031 142.484375 99.917969 L 142.484375 105.765625 L 149.359375 105.765625 C 150.699219 105.765625 151.773438 106.851562 151.773438 108.191406 C 151.773438 109.53125 150.699219 110.601562 149.359375 110.601562 L 142.484375 110.601562 L 142.484375 117.566406 L 157.15625 117.566406 C 158.496094 117.566406 159.582031 118.652344 159.582031 119.992188 C 159.582031 121.320312 158.496094 122.40625 157.15625 122.40625 L 142.484375 122.40625 L 142.484375 129.367188 L 149.359375 129.367188 C 150.699219 129.367188 151.773438 130.441406 151.773438 131.78125 C 151.773438 133.121094 150.699219 134.207031 149.359375 134.207031 L 142.484375 134.207031 L 142.484375 140.050781 C 142.484375 141.390625 141.398438 142.476562 140.058594 142.476562 L 134.222656 142.476562 L 134.222656 149.351562 C 134.222656 150.691406 133.136719 151.765625 131.796875 151.765625 C 130.457031 151.765625 129.371094 150.691406 129.371094 149.351562 L 129.371094 142.476562 L 122.421875 142.476562 L 122.421875 166.652344 C 122.5 178.269531 135.042969 184.46875 144.175781 178.671875 C 147.914062 176.300781 150.453125 172.378906 151.082031 167.929688 C 147.203125 165.367188 144.460938 161.355469 143.5 156.777344 C 143.226562 155.476562 144.074219 154.191406 145.375 153.929688 C 146.679688 153.65625 147.964844 154.492188 148.238281 155.792969 C 148.625 157.660156 149.414062 159.398438 150.539062 160.882812 C 151.621094 162.335938 153.03125 163.558594 154.652344 164.449219 C 157.421875 165.558594 160.394531 165.601562 163.070312 164.746094 C 171.820312 161.933594 174.550781 150.875 168.191406 144.308594 C 164.453125 144.402344 160.835938 143.222656 157.863281 140.949219 C 156.796875 140.148438 156.59375 138.628906 157.40625 137.5625 C 158.21875 136.507812 159.726562 136.304688 160.792969 137.113281 C 161.933594 137.980469 163.242188 138.636719 164.613281 139.023438 C 165.917969 139.402344 167.277344 139.546875 168.640625 139.457031 C 173.136719 138.074219 176.554688 135.28125 178.761719 131.839844 C 184.035156 123.617188 182.378906 112.316406 173.980469 106.359375 C 173.203125 106.550781 172.460938 106.851562 171.789062 107.238281 C 170.851562 107.789062 170.015625 108.507812 169.332031 109.363281 C 168.507812 110.417969 166.984375 110.597656 165.933594 109.777344 C 164.890625 108.953125 164.710938 107.433594 165.535156 106.378906 C 166.597656 105.03125 167.902344 103.910156 169.367188 103.0625 C 170.40625 102.457031 171.652344 101.953125 172.832031 101.667969 C 177.894531 89.722656 168.804688 76.496094 155.808594 76.976562 Z M 110.523438 108.09375 L 129.472656 108.09375 C 130.8125 108.09375 131.886719 109.167969 131.886719 110.507812 L 131.886719 129.457031 C 131.886719 130.796875 130.8125 131.871094 129.472656 131.871094 L 110.523438 131.871094 C 109.183594 131.871094 108.097656 130.796875 108.097656 129.457031 L 108.097656 110.507812 C 108.097656 109.167969 109.1875 108.09375 110.523438 108.09375 Z M 127.046875 112.929688 L 112.945312 112.929688 L 112.945312 127.03125 L 127.046875 127.03125 Z M 137.636719 102.339844 L 102.355469 102.339844 L 102.355469 137.621094 L 137.636719 137.621094 Z M 137.636719 102.339844 " fill-opacity="1" fill-rule="nonzero"/></g></svg>