<svg xmlns="http://www.w3.org/2000/svg" xmlns:xlink="http://www.w3.org/1999/xlink" width="320" zoomAndPan="magnify" viewBox="0 0 240 239.999995" height="320" preserveAspectRatio="xMidYMid meet" version="1.0"><defs><clipPath id="a4b6d7ce47"><path d="M 12.4375 12.4375 L 227.6875 12.4375 L 227.6875 227.6875 L 12.4375 227.6875 Z M 12.4375 12.4375 " clip-rule="nonzero"/></clipPath></defs><g clip-path="url(#a4b6d7ce47)"><path fill="#ffffff" d="M 225.75 195.953125 C 225.460938 196.050781 225.164062 196.101562 224.878906 196.101562 C 223.769531 196.101562 222.726562 195.40625 222.347656 194.292969 L 220.929688 190.167969 C 213.105469 210.125 193.660156 224.292969 170.964844 224.292969 C 141.382812 224.292969 117.320312 200.230469 117.320312 170.652344 C 117.320312 144.027344 95.65625 122.367188 69.03125 122.367188 C 48.054688 122.367188 30.164062 135.8125 23.511719 154.535156 L 29.144531 151.5625 C 30.453125 150.875 32.074219 151.375 32.765625 152.683594 C 33.457031 153.992188 32.953125 155.613281 31.644531 156.304688 L 21.597656 161.601562 C 21.039062 164.535156 20.746094 167.558594 20.746094 170.652344 C 20.746094 197.28125 42.40625 218.9375 69.03125 218.9375 C 76.257812 218.9375 83.367188 217.320312 89.824219 214.234375 L 83.738281 212.351562 C 82.324219 211.914062 81.535156 210.414062 81.972656 209.003906 C 82.410156 207.589844 83.90625 206.800781 85.324219 207.238281 L 97.390625 210.96875 C 98.136719 211.199219 98.746094 211.746094 99.054688 212.460938 C 99.367188 213.179688 99.34375 214 99.003906 214.699219 L 93.464844 226.046875 C 93 227 92.046875 227.550781 91.054688 227.550781 C 90.660156 227.550781 90.257812 227.464844 89.878906 227.28125 C 88.550781 226.632812 88 225.027344 88.648438 223.699219 L 90.558594 219.785156 C 83.804688 222.746094 76.472656 224.292969 69.027344 224.292969 C 39.449219 224.292969 15.386719 200.230469 15.386719 170.652344 C 15.386719 167.007812 15.75 163.449219 16.449219 160.003906 L 12.578125 148.753906 C 12.097656 147.355469 12.84375 145.828125 14.238281 145.347656 C 15.640625 144.863281 17.164062 145.609375 17.644531 147.007812 L 19.0625 151.132812 C 26.886719 131.175781 46.332031 117.007812 69.027344 117.007812 C 98.605469 117.007812 122.667969 141.070312 122.667969 170.648438 C 122.667969 197.273438 144.332031 218.933594 170.957031 218.933594 C 191.933594 218.933594 209.824219 205.488281 216.476562 186.765625 L 210.84375 189.738281 C 209.535156 190.425781 207.914062 189.925781 207.222656 188.617188 C 206.53125 187.308594 207.035156 185.6875 208.34375 184.996094 L 218.390625 179.699219 C 218.949219 176.765625 219.242188 173.742188 219.242188 170.648438 C 219.242188 144.019531 197.582031 122.363281 170.957031 122.363281 C 163.730469 122.363281 156.621094 123.980469 150.164062 127.066406 L 156.25 128.949219 C 157.664062 129.386719 158.453125 130.886719 158.015625 132.296875 C 157.660156 133.449219 156.601562 134.183594 155.460938 134.183594 C 155.195312 134.183594 154.933594 134.144531 154.664062 134.0625 L 142.597656 130.332031 C 141.851562 130.101562 141.242188 129.554688 140.933594 128.835938 C 140.621094 128.121094 140.644531 127.300781 140.988281 126.601562 L 146.523438 115.253906 C 147.171875 113.921875 148.773438 113.367188 150.105469 114.019531 C 151.433594 114.667969 151.984375 116.273438 151.335938 117.601562 L 149.425781 121.515625 C 156.179688 118.554688 163.511719 117.007812 170.957031 117.007812 C 200.53125 117.007812 224.597656 141.070312 224.597656 170.648438 C 224.597656 174.292969 224.230469 177.851562 223.535156 181.296875 L 227.40625 192.546875 C 227.890625 193.949219 227.144531 195.472656 225.75 195.953125 Z M 137.984375 170.652344 C 137.984375 152.46875 152.777344 137.675781 170.960938 137.675781 C 189.144531 137.675781 203.9375 152.46875 203.9375 170.652344 C 203.9375 188.835938 189.144531 203.628906 170.960938 203.628906 C 152.777344 203.628906 137.984375 188.835938 137.984375 170.652344 Z M 143.339844 170.652344 C 143.339844 185.886719 155.726562 198.273438 170.960938 198.273438 C 186.191406 198.273438 198.582031 185.886719 198.582031 170.652344 C 198.582031 155.421875 186.191406 143.03125 170.960938 143.03125 C 155.726562 143.03125 143.339844 155.425781 143.339844 170.652344 Z M 168.285156 183.601562 C 168.519531 183.664062 168.75 183.695312 168.984375 183.695312 C 170.167969 183.695312 171.246094 182.902344 171.566406 181.707031 L 177.121094 160.988281 C 177.503906 159.5625 176.65625 158.09375 175.226562 157.710938 C 173.800781 157.324219 172.332031 158.171875 171.945312 159.601562 L 166.394531 180.320312 C 166.011719 181.746094 166.859375 183.214844 168.285156 183.601562 Z M 150.085938 172.683594 L 159.925781 181.144531 C 160.433594 181.578125 161.050781 181.792969 161.671875 181.792969 C 162.425781 181.792969 163.175781 181.476562 163.703125 180.859375 C 164.667969 179.738281 164.542969 178.046875 163.417969 177.082031 L 155.9375 170.652344 L 163.417969 164.222656 C 164.539062 163.257812 164.667969 161.566406 163.703125 160.445312 C 162.738281 159.324219 161.046875 159.195312 159.925781 160.160156 L 150.085938 168.621094 C 149.492188 169.128906 149.152344 169.871094 149.152344 170.652344 C 149.152344 171.433594 149.496094 172.175781 150.085938 172.683594 Z M 180.085938 164.222656 L 187.566406 170.652344 L 180.085938 177.082031 C 178.96875 178.046875 178.835938 179.738281 179.800781 180.859375 C 180.332031 181.476562 181.078125 181.792969 181.832031 181.792969 C 182.449219 181.792969 183.074219 181.578125 183.578125 181.144531 L 193.417969 172.683594 C 194.011719 172.175781 194.351562 171.433594 194.351562 170.652344 C 194.351562 169.871094 194.011719 169.128906 193.417969 168.621094 L 183.578125 160.160156 C 182.457031 159.195312 180.765625 159.320312 179.800781 160.445312 C 178.84375 161.566406 178.96875 163.257812 180.085938 164.222656 Z M 69.03125 137.675781 C 87.214844 137.675781 102.011719 152.46875 102.011719 170.652344 C 102.011719 188.835938 87.214844 203.628906 69.03125 203.628906 C 50.851562 203.628906 36.054688 188.835938 36.054688 170.652344 C 36.054688 152.46875 50.851562 137.675781 69.03125 137.675781 Z M 69.03125 143.03125 C 53.804688 143.03125 41.410156 155.421875 41.410156 170.652344 C 41.410156 185.886719 53.800781 198.273438 69.03125 198.273438 C 84.265625 198.273438 96.65625 185.886719 96.65625 170.652344 C 96.65625 155.421875 84.261719 143.03125 69.03125 143.03125 Z M 66.359375 183.601562 C 66.589844 183.664062 66.824219 183.695312 67.054688 183.695312 C 68.238281 183.695312 69.316406 182.902344 69.640625 181.707031 L 75.191406 160.988281 C 75.574219 159.5625 74.726562 158.09375 73.300781 157.710938 C 71.871094 157.324219 70.402344 158.171875 70.019531 159.601562 L 64.464844 180.320312 C 64.078125 181.746094 64.925781 183.214844 66.359375 183.601562 Z M 61.773438 160.445312 C 60.8125 159.324219 59.121094 159.195312 58 160.160156 L 48.160156 168.621094 C 47.566406 169.128906 47.226562 169.871094 47.226562 170.652344 C 47.226562 171.433594 47.566406 172.175781 48.160156 172.683594 L 58 181.144531 C 58.503906 181.578125 59.125 181.792969 59.746094 181.792969 C 60.5 181.792969 61.25 181.476562 61.773438 180.859375 C 62.738281 179.738281 62.613281 178.046875 61.488281 177.082031 L 54.007812 170.652344 L 61.488281 164.222656 C 62.613281 163.257812 62.738281 161.566406 61.773438 160.445312 Z M 77.875 180.863281 C 78.40625 181.480469 79.148438 181.796875 79.90625 181.796875 C 80.519531 181.796875 81.144531 181.582031 81.648438 181.148438 L 91.492188 172.6875 C 92.085938 172.179688 92.421875 171.4375 92.421875 170.65625 C 92.421875 169.875 92.085938 169.136719 91.492188 168.625 L 81.648438 160.164062 C 80.527344 159.199219 78.835938 159.324219 77.875 160.449219 C 76.910156 161.570312 77.035156 163.261719 78.160156 164.226562 L 85.640625 170.65625 L 78.160156 177.089844 C 77.039062 178.046875 76.910156 179.738281 77.875 180.863281 Z M 82.996094 60.5625 C 82.996094 60.355469 82.996094 60.144531 82.996094 59.9375 C 83.023438 56.613281 81.386719 53.746094 78.503906 52.082031 L 78.203125 51.90625 C 76.484375 50.917969 75.253906 49.308594 74.742188 47.382812 C 74.222656 45.457031 74.484375 43.449219 75.480469 41.730469 L 81.707031 30.949219 C 83.761719 27.390625 88.328125 26.167969 91.878906 28.222656 L 92.171875 28.390625 C 95.0625 30.054688 98.363281 30.042969 101.234375 28.351562 C 101.410156 28.25 101.589844 28.140625 101.773438 28.039062 C 104.671875 26.394531 106.332031 23.550781 106.332031 20.21875 L 106.332031 19.875 C 106.332031 15.769531 109.671875 12.425781 113.78125 12.425781 L 126.230469 12.425781 C 130.335938 12.425781 133.679688 15.769531 133.679688 19.875 L 133.679688 20.21875 C 133.679688 23.542969 135.339844 26.394531 138.234375 28.039062 C 138.414062 28.140625 138.59375 28.242188 138.773438 28.351562 C 141.640625 30.042969 144.945312 30.0625 147.832031 28.390625 L 148.132812 28.222656 C 149.851562 27.230469 151.859375 26.96875 153.78125 27.484375 C 155.707031 28.003906 157.3125 29.230469 158.308594 30.949219 L 164.535156 41.730469 C 166.585938 45.289062 165.363281 49.851562 161.808594 51.902344 L 161.507812 52.078125 C 158.625 53.742188 156.988281 56.605469 157.011719 59.933594 C 157.011719 60.136719 157.011719 60.347656 157.011719 60.558594 C 156.988281 63.882812 158.625 66.746094 161.507812 68.410156 L 161.808594 68.585938 C 165.363281 70.640625 166.585938 75.199219 164.535156 78.757812 L 158.308594 89.539062 C 157.316406 91.257812 155.710938 92.492188 153.78125 93.003906 C 151.859375 93.519531 149.851562 93.257812 148.132812 92.265625 L 147.835938 92.097656 C 144.949219 90.433594 141.648438 90.445312 138.777344 92.136719 C 138.597656 92.246094 138.414062 92.347656 138.234375 92.449219 C 135.339844 94.089844 133.679688 96.941406 133.679688 100.265625 L 133.679688 100.609375 C 133.679688 104.714844 130.335938 108.058594 126.230469 108.058594 L 113.78125 108.058594 C 109.671875 108.058594 106.332031 104.714844 106.332031 100.609375 L 106.332031 100.265625 C 106.332031 96.941406 104.671875 94.089844 101.777344 92.445312 C 101.597656 92.34375 101.421875 92.242188 101.242188 92.132812 C 98.367188 90.4375 95.070312 90.425781 92.183594 92.089844 L 91.882812 92.257812 C 90.164062 93.25 88.160156 93.511719 86.234375 92.996094 C 84.308594 92.476562 82.703125 91.25 81.710938 89.53125 L 75.484375 78.75 C 74.496094 77.03125 74.230469 75.023438 74.75 73.097656 C 75.265625 71.175781 76.496094 69.566406 78.214844 68.578125 L 78.511719 68.402344 C 81.386719 66.757812 83.023438 63.890625 82.996094 60.5625 Z M 88.351562 59.980469 C 88.351562 60.160156 88.351562 60.339844 88.351562 60.511719 C 88.398438 65.828125 85.78125 70.398438 81.179688 73.054688 L 80.882812 73.226562 C 80.40625 73.503906 80.0625 73.957031 79.914062 74.5 C 79.765625 75.042969 79.84375 75.605469 80.117188 76.085938 L 86.34375 86.867188 C 86.621094 87.34375 87.070312 87.691406 87.617188 87.835938 C 88.160156 87.984375 88.722656 87.90625 89.199219 87.628906 L 89.5 87.460938 C 91.785156 86.144531 94.230469 85.484375 96.671875 85.484375 C 99.160156 85.484375 101.644531 86.167969 103.957031 87.527344 C 104.109375 87.617188 104.265625 87.707031 104.421875 87.796875 C 109.039062 90.414062 111.6875 94.964844 111.6875 100.269531 L 111.6875 100.613281 C 111.6875 101.765625 112.625 102.707031 113.78125 102.707031 L 126.230469 102.707031 C 127.382812 102.707031 128.324219 101.769531 128.324219 100.613281 L 128.324219 100.269531 C 128.324219 94.957031 130.972656 90.414062 135.589844 87.796875 C 135.746094 87.707031 135.902344 87.617188 136.054688 87.527344 C 140.632812 84.828125 145.90625 84.800781 150.511719 87.460938 L 150.804688 87.628906 C 151.289062 87.90625 151.847656 87.976562 152.390625 87.835938 C 152.933594 87.6875 153.386719 87.34375 153.660156 86.867188 L 159.886719 76.085938 C 160.464844 75.085938 160.121094 73.804688 159.125 73.226562 L 158.824219 73.054688 C 154.222656 70.398438 151.609375 65.828125 151.652344 60.511719 C 151.652344 60.332031 151.652344 60.15625 151.652344 59.980469 C 151.609375 54.664062 154.222656 50.09375 158.824219 47.441406 L 159.125 47.265625 C 160.125 46.691406 160.464844 45.410156 159.886719 44.410156 L 153.660156 33.625 C 153.386719 33.148438 152.933594 32.804688 152.390625 32.65625 C 151.84375 32.511719 151.28125 32.585938 150.804688 32.863281 L 150.507812 33.03125 C 145.898438 35.691406 140.628906 35.667969 136.050781 32.964844 C 135.898438 32.875 135.742188 32.789062 135.585938 32.699219 C 130.964844 30.078125 128.320312 25.53125 128.320312 20.222656 L 128.320312 19.878906 C 128.320312 18.730469 127.382812 17.789062 126.226562 17.789062 L 113.773438 17.789062 C 112.625 17.789062 111.683594 18.722656 111.683594 19.878906 L 111.683594 20.222656 C 111.683594 25.535156 109.03125 30.082031 104.414062 32.699219 C 104.265625 32.78125 104.109375 32.871094 103.957031 32.964844 C 99.371094 35.671875 94.105469 35.691406 89.5 33.03125 L 89.207031 32.863281 C 88.207031 32.289062 86.925781 32.632812 86.34375 33.625 L 80.117188 44.410156 C 79.84375 44.886719 79.769531 45.453125 79.914062 45.992188 C 80.0625 46.539062 80.40625 46.988281 80.882812 47.265625 L 81.179688 47.441406 C 85.78125 50.101562 88.394531 54.671875 88.351562 59.980469 Z M 96.234375 60.25 C 96.234375 47.148438 106.894531 36.488281 119.996094 36.488281 C 133.101562 36.488281 143.757812 47.144531 143.757812 60.25 C 143.757812 73.351562 133.101562 84.011719 119.996094 84.011719 C 106.894531 84.011719 96.234375 73.351562 96.234375 60.25 Z M 101.589844 60.25 C 101.589844 70.398438 109.847656 78.65625 119.996094 78.65625 C 130.144531 78.65625 138.402344 70.398438 138.402344 60.25 C 138.402344 50.101562 130.144531 41.84375 119.996094 41.84375 C 109.847656 41.84375 101.589844 50.101562 101.589844 60.25 Z M 115.859375 67.359375 C 116.382812 67.882812 117.070312 68.144531 117.75 68.144531 C 118.433594 68.144531 119.121094 67.882812 119.644531 67.359375 L 130.074219 56.929688 C 131.117188 55.882812 131.117188 54.1875 130.074219 53.140625 C 129.03125 52.09375 127.332031 52.09375 126.289062 53.140625 L 117.75 61.675781 L 113.695312 57.621094 C 112.648438 56.574219 110.953125 56.574219 109.910156 57.621094 C 108.867188 58.664062 108.867188 60.359375 109.910156 61.410156 Z M 115.859375 67.359375 " fill-opacity="1" fill-rule="nonzero"/></g></svg>