<svg width="1339" height="1560" viewBox="0 0 1339 1560" fill="none" xmlns="http://www.w3.org/2000/svg">
<g filter="url(#filter0_i_812_362)">
<path d="M328.203 1102.84C360.574 1093.3 390.858 1084.46 421.1 1075.44C547.537 1037.71 673.156 997.515 794.701 945.672C849.017 922.512 902.297 897.229 949.97 861.747C969.634 847.104 988.508 831.512 1000.07 809.125C1012.23 785.75 1008.38 764.491 988.469 747.111C971.065 731.726 950.176 723.019 928.21 717.071C838.879 692.919 749.116 695.154 659.325 714.163C656.966 714.717 654.45 715.188 651.965 715.712C651.662 715.771 651.294 715.547 649.648 714.921C651.62 709.515 653.565 704.036 655.651 698.614C663.77 677.492 671.59 656.23 680.438 635.399C681.977 631.754 687.467 628.856 691.744 627.461C755.55 606.474 816.941 580.294 872.939 542.766C916.278 513.71 955.678 480.419 981.472 433.832C986.351 425.032 990.384 415.789 993.516 406.228C1007.94 362.139 989.183 322.928 946.108 305.553C910.751 291.228 873.903 290.584 836.799 293.521C786.003 297.543 736.945 309.971 688.591 325.505C685.188 326.603 681.747 327.67 678.286 328.643C677.685 328.828 676.929 328.465 674.902 328.123C682.348 308.925 690.844 290.341 696.693 270.951C701.284 256.053 710.55 249.905 724.645 245.274C794.045 222.505 864.474 206.589 937.971 209.229C988.64 211.066 1037.08 221.979 1080.02 250.48C1153.76 299.409 1176.98 389.721 1137.19 470.303C1106.79 531.741 1056.53 571.009 995.596 598.57C987.168 602.39 978.549 605.72 969.899 611.62C991.239 616.859 1013.28 620.157 1033.79 627.682C1103.99 653.429 1157.84 697.474 1180.77 771.36C1201.49 838.344 1186.19 899.954 1146.96 956.425C1116.72 999.943 1075.75 1032.29 1032.91 1062.23C943.09 1124.99 844.847 1172 744.071 1213.93C591.5 1277.45 434.624 1328.09 274.459 1368.67C250.424 1374.77 229.329 1370.44 212.435 1351.98C195.541 1333.52 193.145 1311.68 201.931 1288.66C225.691 1226.15 249.47 1163.66 273.269 1101.18C299.494 1032.32 325.724 963.463 351.96 894.617C376.131 831.162 400.326 767.704 424.542 704.245C450.381 636.413 476.18 568.564 501.938 500.698C513.556 470.211 524.848 439.422 536.975 409.038C550.665 374.726 543.694 349.433 513.899 328.116C450.591 282.763 387.288 237.388 323.991 191.993C275.443 157.071 282.011 91.3838 336.289 66.6577C353.307 58.9001 370.293 51.0903 387.385 43.4843C444.581 18.0076 505.425 36.5222 538.752 89.5332C564.616 130.755 588.814 172.879 616.228 212.947C640.766 248.798 641.364 283.573 625.454 322.941C595.292 397.55 567.711 473.237 538.986 548.421C513.257 615.924 487.538 683.423 461.827 750.916C435.847 819.083 409.851 887.254 383.839 955.429C365.936 1002.46 348.103 1049.52 330.339 1096.59C329.936 1097.87 329.523 1099.19 328.203 1102.84Z" fill="url(#paint0_linear_812_362)"/>
</g>
<rect x="306.839" y="314.517" width="161.218" height="161.218" rx="80.609" stroke="#0EA5E9" stroke-width="4.98613"/>
<path d="M353.623 374.372C353.623 367.727 362.445 362.457 373.329 362.457C387.764 362.457 395.326 369.446 395.326 382.736V413.784C395.326 416.648 395.784 417.908 397.388 417.908C398.648 417.908 400.481 417.221 403.346 415.846V416.304C401.856 417.335 396.128 420.887 392.003 420.887C389.139 420.887 387.306 418.939 387.306 415.731V411.034C384.557 417.564 377.339 422.032 368.288 422.032C356.029 422.032 347.093 414.013 347.093 403.014C347.093 393.62 354.196 384.225 367.601 384.225C376.881 384.225 384.557 388.922 387.306 395.682V384.569C387.306 369.446 382.265 363.603 374.36 363.603C367.601 363.603 361.758 370.592 360.268 380.444C356.602 380.444 353.623 377.809 353.623 374.372ZM356.029 402.9C356.029 412.752 362.56 419.741 371.725 419.741C380.432 419.741 387.306 413.325 387.306 405.191V401.41C387.306 393.276 379.974 386.516 370.923 386.516C362.33 386.516 356.029 393.39 356.029 402.9ZM410.244 351.344C410.244 348.938 412.306 346.876 414.827 346.876C417.347 346.876 419.409 348.938 419.409 351.344C419.409 353.865 417.347 355.927 414.827 355.927C412.306 355.927 410.244 353.865 410.244 351.344ZM411.39 413.784V372.997C411.39 367.613 409.786 366.353 403.37 366.353V365.894L419.409 363.603V413.784C419.409 419.168 421.013 420.428 427.429 420.428V420.887H403.37V420.428C409.786 420.428 411.39 419.168 411.39 413.784Z" fill="#0EA5E9"/>
<defs>
<filter id="filter0_i_812_362" x="196.939" y="32.1758" width="999.81" height="1345.82" filterUnits="userSpaceOnUse" color-interpolation-filters="sRGB">
<feFlood flood-opacity="0" result="BackgroundImageFix"/>
<feBlend mode="normal" in="SourceGraphic" in2="BackgroundImageFix" result="shape"/>
<feColorMatrix in="SourceAlpha" type="matrix" values="0 0 0 0 0 0 0 0 0 0 0 0 0 0 0 0 0 0 127 0" result="hardAlpha"/>
<feOffset dx="16.8253" dy="10.0952"/>
<feGaussianBlur stdDeviation="3.36505"/>
<feComposite in2="hardAlpha" operator="arithmetic" k2="-1" k3="1"/>
<feColorMatrix type="matrix" values="0 0 0 0 0.963141 0 0 0 0 0.958511 0 0 0 0 0.958511 0 0 0 1 0"/>
<feBlend mode="normal" in2="shape" result="effect1_innerShadow_812_362"/>
</filter>
<linearGradient id="paint0_linear_812_362" x1="591.407" y1="286.325" x2="1047.37" y2="916.431" gradientUnits="userSpaceOnUse">
<stop offset="0.292214" stop-color="white"/>
<stop offset="1" stop-color="#0EA5E9"/>
</linearGradient>
</defs>
</svg>
