<svg xmlns="http://www.w3.org/2000/svg" xmlns:xlink="http://www.w3.org/1999/xlink" width="320" zoomAndPan="magnify" viewBox="0 0 240 247.92" height="320" preserveAspectRatio="xMidYMid meet" version="1.0"><defs><clipPath id="cf66e6b169"><path d="M 19 27.617188 L 221 27.617188 L 221 212 L 19 212 Z M 19 27.617188 " clip-rule="nonzero"/></clipPath></defs><g clip-path="url(#cf66e6b169)"><path fill="#ffffff" d="M 218.347656 123.636719 L 207.113281 123.636719 L 207.113281 42.386719 C 207.113281 40.941406 205.9375 39.765625 204.492188 39.765625 L 176.882812 39.765625 C 175.4375 39.765625 174.261719 40.941406 174.261719 42.386719 L 174.261719 64.890625 L 149.277344 64.890625 C 147.828125 64.890625 146.652344 66.066406 146.652344 67.511719 L 146.652344 88.554688 L 121.667969 88.554688 C 120.21875 88.554688 119.046875 89.726562 119.046875 91.175781 L 119.046875 123.636719 L 107.304688 123.636719 L 107.304688 30.265625 C 107.304688 28.816406 106.128906 27.640625 104.679688 27.640625 L 89.605469 27.640625 C 88.15625 27.640625 86.984375 28.816406 86.984375 30.265625 L 86.984375 70.839844 C 59.175781 71.894531 34.0625 89.585938 23.882812 115.609375 C 23.835938 115.699219 23.800781 115.789062 23.769531 115.886719 C 20.621094 124.011719 19.015625 132.570312 19.015625 141.328125 C 19.015625 150.152344 20.625 158.757812 23.796875 166.902344 C 23.804688 166.917969 23.816406 166.933594 23.824219 166.953125 C 23.824219 166.960938 23.828125 166.96875 23.832031 166.976562 C 34.289062 193.859375 60.707031 211.917969 89.605469 211.917969 C 89.855469 211.917969 90.121094 211.917969 90.347656 211.910156 C 90.597656 211.902344 90.839844 211.886719 91.042969 211.859375 C 91.054688 211.859375 91.058594 211.855469 91.070312 211.855469 C 120.085938 211.277344 144.925781 192.832031 155.164062 167.234375 C 155.304688 166.992188 155.390625 166.734375 155.453125 166.449219 C 158.175781 159.398438 159.773438 151.832031 160.066406 143.945312 L 218.347656 143.945312 C 219.792969 143.945312 220.96875 142.773438 220.96875 141.324219 L 220.96875 126.25 C 220.96875 124.800781 219.792969 123.625 218.347656 123.625 Z M 179.507812 45.011719 L 201.871094 45.011719 L 201.871094 123.632812 L 179.507812 123.632812 Z M 151.902344 70.136719 L 174.265625 70.136719 L 174.265625 123.636719 L 151.902344 123.636719 Z M 124.292969 93.796875 L 146.65625 93.796875 L 146.65625 123.632812 L 124.292969 123.632812 Z M 115.542969 163.328125 L 63.6875 163.328125 C 62.582031 156.324219 61.996094 148.949219 61.996094 141.332031 C 61.996094 133.714844 62.582031 126.382812 63.6875 119.378906 L 86.988281 119.378906 L 86.988281 141.332031 C 86.988281 142.777344 88.160156 143.953125 89.609375 143.953125 L 117.207031 143.953125 C 117.09375 150.648438 116.515625 157.128906 115.539062 163.328125 Z M 90.492188 206.652344 C 90.207031 206.6875 89.894531 206.679688 89.609375 206.679688 C 79.007812 206.679688 69.140625 191.492188 64.597656 168.574219 L 114.613281 168.574219 C 110.246094 190.5625 100.765625 205.730469 90.488281 206.65625 Z M 28.128906 163.328125 C 25.601562 156.28125 24.265625 148.902344 24.265625 141.332031 C 24.265625 133.761719 25.601562 126.425781 28.128906 119.378906 L 58.386719 119.378906 C 57.320312 126.40625 56.75 133.761719 56.75 141.332031 C 56.75 148.902344 57.320312 156.300781 58.382812 163.328125 Z M 86.988281 76.292969 L 86.988281 114.128906 L 64.601562 114.128906 C 68.769531 93.09375 77.410156 78.554688 86.988281 76.292969 Z M 75.21875 77.660156 C 68.082031 84.972656 62.375 97.734375 59.269531 114.132812 L 30.234375 114.132812 C 38.75 95.59375 55.628906 82.15625 75.21875 77.660156 Z M 30.242188 168.570312 L 59.269531 168.570312 C 62.382812 184.984375 68.105469 197.746094 75.257812 205.042969 C 55.640625 200.566406 38.757812 187.105469 30.242188 168.570312 Z M 103.910156 204.996094 C 111.09375 197.648438 116.863281 184.851562 119.953125 168.570312 L 148.914062 168.570312 C 140.476562 186.699219 123.925781 200.429688 103.910156 204.996094 Z M 151.058594 163.328125 L 120.839844 163.328125 C 121.785156 157.117188 122.3125 150.628906 122.421875 143.953125 L 154.910156 143.953125 C 154.636719 150.71875 153.277344 157.21875 151.0625 163.328125 Z M 215.726562 138.707031 L 92.234375 138.707031 L 92.234375 32.886719 L 102.066406 32.886719 L 102.066406 126.257812 C 102.066406 127.703125 103.238281 128.878906 104.6875 128.878906 L 215.730469 128.878906 L 215.730469 138.707031 Z M 215.726562 138.707031 " fill-opacity="1" fill-rule="nonzero"/></g></svg>