<svg xmlns="http://www.w3.org/2000/svg" xmlns:xlink="http://www.w3.org/1999/xlink" width="320" zoomAndPan="magnify" viewBox="0 0 240 247.92" height="320" preserveAspectRatio="xMidYMid meet" version="1.0"><defs><clipPath id="46a1b7f944"><path d="M 30.148438 49 L 210 49 L 210 190.683594 L 30.148438 190.683594 Z M 30.148438 49 " clip-rule="nonzero"/></clipPath></defs><g clip-path="url(#46a1b7f944)"><path fill="#ffffff" d="M 155.355469 190.855469 C 154.722656 190.855469 154.050781 190.609375 153.589844 190.113281 C 153.414062 189.9375 137.253906 173.5625 123.699219 171.90625 C 120.488281 173.246094 117.066406 173.917969 113.574219 173.917969 C 104.007812 173.917969 95.398438 168.90625 90.667969 160.824219 C 86.117188 165.164062 80.082031 167.601562 73.660156 167.601562 C 60.285156 167.601562 49.34375 156.90625 49.027344 143.671875 C 38.40625 142.4375 30.148438 133.441406 30.148438 122.535156 C 30.148438 111.628906 32.476562 111.277344 36.605469 107.289062 C 36.042969 105.3125 35.757812 103.265625 35.757812 101.183594 C 35.757812 88.902344 45.78125 78.953125 58.097656 78.953125 C 70.414062 78.953125 60.777344 79.058594 62.085938 79.304688 C 62.050781 78.742188 62.015625 78.175781 62.015625 77.644531 C 62.015625 65.367188 72.035156 55.414062 84.351562 55.414062 C 96.667969 55.414062 95.398438 57.566406 99.492188 61.308594 C 103.234375 53.933594 110.925781 49.0625 119.429688 49.0625 C 127.9375 49.0625 136.898438 54.8125 140.214844 63.175781 C 143.921875 60.601562 148.296875 59.226562 152.921875 59.226562 C 165.238281 59.226562 175.257812 69.210938 175.257812 81.457031 C 175.257812 93.703125 175.257812 81.5625 175.257812 81.632812 C 175.929688 81.5625 176.601562 81.527344 177.269531 81.527344 C 189.585938 81.527344 199.609375 91.515625 199.609375 103.761719 C 199.609375 116.007812 199.152344 108.949219 198.269531 111.382812 C 205.46875 116.289062 209.84375 124.441406 209.84375 133.226562 C 209.84375 147.800781 197.949219 159.660156 183.304688 159.660156 C 168.660156 159.660156 181.117188 159.589844 180.058594 159.449219 C 178.257812 163.929688 175.222656 167.882812 171.34375 170.777344 C 167.390625 173.742188 162.800781 175.503906 157.898438 175.929688 L 157.898438 188.386719 C 157.898438 189.375 157.296875 190.292969 156.34375 190.679688 C 156.027344 190.785156 155.707031 190.855469 155.425781 190.855469 Z M 123.347656 166.929688 C 123.417969 166.929688 123.488281 166.929688 123.558594 166.929688 C 134.640625 167.953125 146.675781 177.234375 152.886719 182.703125 L 152.886719 173.597656 C 152.886719 172.222656 153.980469 171.128906 155.355469 171.128906 C 164.882812 171.128906 173.175781 165.023438 176 155.953125 C 176.390625 154.753906 177.625 154.011719 178.859375 154.261719 C 180.304688 154.542969 181.789062 154.71875 183.269531 154.71875 C 195.164062 154.71875 204.867188 145.085938 204.867188 133.226562 C 204.867188 121.371094 200.667969 118.335938 193.890625 114.523438 C 192.761719 113.890625 192.304688 112.476562 192.871094 111.277344 C 194 108.914062 194.597656 106.40625 194.597656 103.761719 C 194.597656 94.234375 186.800781 86.46875 177.199219 86.46875 C 167.601562 86.46875 174.414062 86.644531 173.070312 86.964844 C 172.261719 87.175781 171.414062 86.964844 170.8125 86.363281 C 170.214844 85.796875 169.929688 84.988281 170.035156 84.175781 C 170.179688 83.257812 170.25 82.375 170.25 81.457031 C 170.25 71.929688 162.449219 64.164062 152.851562 64.164062 C 143.25 64.164062 143.851562 65.964844 140.605469 69.210938 C 139.96875 69.847656 139.015625 70.09375 138.132812 69.8125 C 137.253906 69.53125 136.617188 68.824219 136.441406 67.941406 C 134.851562 59.859375 127.652344 54.003906 119.394531 54.003906 C 111.136719 54.003906 104.785156 59.191406 102.667969 66.601562 C 102.421875 67.519531 101.679688 68.1875 100.726562 68.363281 C 99.808594 68.542969 98.855469 68.152344 98.292969 67.414062 C 94.976562 62.929688 89.894531 60.390625 84.316406 60.390625 C 74.71875 60.390625 66.917969 68.152344 66.917969 77.683594 C 66.917969 87.210938 67.132812 80.679688 67.484375 82.128906 C 67.730469 83.011719 67.449219 83.964844 66.742188 84.597656 C 66.074219 85.234375 65.085938 85.410156 64.203125 85.058594 C 62.226562 84.316406 60.144531 83.929688 58.027344 83.929688 C 48.429688 83.929688 40.628906 91.691406 40.628906 101.21875 C 40.628906 110.75 40.980469 105.3125 41.722656 107.21875 C 42.074219 108.207031 41.792969 109.300781 40.980469 109.972656 C 37.207031 113.078125 35.054688 117.664062 35.054688 122.535156 C 35.054688 131.535156 42.394531 138.839844 51.425781 138.875 C 51.460938 138.875 51.496094 138.875 51.535156 138.875 C 52.203125 138.875 52.875 139.15625 53.332031 139.652344 C 53.792969 140.144531 54.039062 140.851562 54.003906 141.519531 C 53.96875 142.085938 53.933594 142.578125 53.933594 143.039062 C 53.933594 153.835938 62.753906 162.660156 73.625 162.660156 C 84.492188 162.660156 85.515625 159.835938 89.292969 154.929688 C 89.824219 154.226562 90.703125 153.871094 91.585938 153.976562 C 92.46875 154.085938 93.210938 154.683594 93.527344 155.496094 C 96.84375 163.648438 104.714844 168.941406 113.539062 168.941406 C 122.359375 168.941406 119.535156 168.304688 122.289062 167.105469 C 122.605469 166.964844 122.960938 166.894531 123.277344 166.894531 Z M 123.347656 166.929688 " fill-opacity="1" fill-rule="nonzero"/></g><path fill="#ffffff" d="M 163.367188 148.824219 L 87 148.824219 C 77.71875 148.824219 70.167969 141.308594 70.167969 132.0625 C 70.167969 122.816406 77.71875 115.300781 87 115.300781 L 152.921875 115.300781 C 159.484375 115.300781 164.8125 110.007812 164.8125 103.480469 C 164.8125 96.949219 159.484375 91.65625 152.921875 91.65625 L 76.554688 91.65625 C 75.175781 91.65625 74.082031 90.5625 74.082031 89.1875 C 74.082031 87.808594 75.175781 86.714844 76.554688 86.714844 L 152.921875 86.714844 C 162.203125 86.714844 169.753906 94.234375 169.753906 103.480469 C 169.753906 112.722656 162.203125 120.242188 152.921875 120.242188 L 87 120.242188 C 80.4375 120.242188 75.105469 125.535156 75.105469 132.0625 C 75.105469 138.59375 80.4375 143.886719 87 143.886719 L 163.367188 143.886719 C 164.742188 143.886719 165.835938 144.980469 165.835938 146.355469 C 165.835938 147.730469 164.742188 148.824219 163.367188 148.824219 Z M 163.367188 148.824219 " fill-opacity="1" fill-rule="nonzero"/><path fill="#ffffff" d="M 124.9375 135.839844 C 123.558594 135.839844 122.464844 134.746094 122.464844 133.367188 L 122.464844 97.796875 C 122.464844 96.421875 123.558594 95.328125 124.9375 95.328125 C 126.3125 95.328125 127.40625 96.421875 127.40625 97.796875 L 127.40625 133.367188 C 127.40625 134.746094 126.3125 135.839844 124.9375 135.839844 Z M 124.9375 135.839844 " fill-opacity="1" fill-rule="nonzero"/><path fill="#ffffff" d="M 63.601562 119.183594 C 58.203125 119.183594 53.792969 114.804688 53.792969 109.40625 C 53.792969 104.007812 58.203125 99.632812 63.601562 99.632812 C 69 99.632812 73.414062 104.007812 73.414062 109.40625 C 73.414062 114.804688 69 119.183594 63.601562 119.183594 Z M 63.601562 104.609375 C 60.921875 104.609375 58.730469 106.761719 58.730469 109.441406 C 58.730469 112.125 60.921875 114.277344 63.601562 114.277344 C 66.285156 114.277344 68.472656 112.125 68.472656 109.441406 C 68.472656 106.761719 66.285156 104.609375 63.601562 104.609375 Z M 63.601562 104.609375 " fill-opacity="1" fill-rule="nonzero"/><path fill="#ffffff" d="M 180.234375 143.109375 C 174.835938 143.109375 170.425781 138.734375 170.425781 133.332031 C 170.425781 127.933594 174.835938 123.558594 180.234375 123.558594 C 185.632812 123.558594 190.046875 127.933594 190.046875 133.332031 C 190.046875 138.734375 185.632812 143.109375 180.234375 143.109375 Z M 180.234375 128.535156 C 177.554688 128.535156 175.367188 130.6875 175.367188 133.367188 C 175.367188 136.050781 177.554688 138.203125 180.234375 138.203125 C 182.917969 138.203125 185.105469 136.050781 185.105469 133.367188 C 185.105469 130.6875 182.917969 128.535156 180.234375 128.535156 Z M 180.234375 128.535156 " fill-opacity="1" fill-rule="nonzero"/><path fill="#ffffff" d="M 98.152344 101.503906 C 97.515625 101.503906 96.878906 101.253906 96.386719 100.761719 C 95.433594 99.808594 95.433594 98.21875 96.386719 97.265625 L 104.574219 89.117188 L 96.386719 80.964844 C 95.433594 80.011719 95.433594 78.421875 96.386719 77.46875 C 97.339844 76.515625 98.925781 76.515625 99.878906 77.46875 L 109.832031 87.351562 C 110.289062 87.808594 110.574219 88.445312 110.574219 89.117188 C 110.574219 89.785156 110.328125 90.386719 109.832031 90.878906 L 99.878906 100.761719 C 99.386719 101.253906 98.75 101.46875 98.152344 101.46875 Z M 98.152344 101.503906 " fill-opacity="1" fill-rule="nonzero"/><path fill="#ffffff" d="M 141.769531 101.503906 C 141.132812 101.503906 140.5 101.253906 140.003906 100.761719 C 139.050781 99.808594 139.050781 98.21875 140.003906 97.265625 L 148.191406 89.117188 L 140.003906 80.964844 C 139.050781 80.011719 139.050781 78.421875 140.003906 77.46875 C 140.957031 76.515625 142.546875 76.515625 143.5 77.46875 L 153.449219 87.351562 C 153.910156 87.808594 154.191406 88.445312 154.191406 89.117188 C 154.191406 89.785156 153.945312 90.386719 153.449219 90.878906 L 143.5 100.761719 C 143.003906 101.253906 142.371094 101.46875 141.769531 101.46875 Z M 141.769531 101.503906 " fill-opacity="1" fill-rule="nonzero"/><path fill="#ffffff" d="M 106.089844 130.121094 C 105.457031 130.121094 104.820312 129.875 104.363281 129.417969 L 94.410156 119.535156 C 93.953125 119.078125 93.667969 118.441406 93.667969 117.769531 C 93.667969 117.101562 93.917969 116.5 94.410156 116.007812 L 104.363281 106.125 C 105.316406 105.171875 106.902344 105.171875 107.855469 106.125 C 108.808594 107.078125 108.808594 108.667969 107.855469 109.617188 L 99.667969 117.769531 L 107.855469 125.921875 C 108.808594 126.875 108.808594 128.464844 107.855469 129.417969 C 107.363281 129.910156 106.726562 130.15625 106.089844 130.15625 Z M 106.089844 130.121094 " fill-opacity="1" fill-rule="nonzero"/><path fill="#ffffff" d="M 155.25 158.707031 C 154.613281 158.707031 153.980469 158.460938 153.484375 157.964844 C 152.53125 157.011719 152.53125 155.425781 153.484375 154.472656 L 161.671875 146.320312 L 153.484375 138.167969 C 152.53125 137.214844 152.53125 135.628906 153.484375 134.675781 C 154.4375 133.722656 156.027344 133.722656 156.980469 134.675781 L 166.929688 144.554688 C 167.390625 145.015625 167.671875 145.648438 167.671875 146.320312 C 167.671875 146.992188 167.425781 147.589844 166.929688 148.085938 L 156.980469 157.964844 C 156.484375 158.460938 155.851562 158.671875 155.25 158.671875 Z M 155.25 158.707031 " fill-opacity="1" fill-rule="nonzero"/><path fill="#ffffff" d="M 112.230469 158.707031 C 111.597656 158.707031 110.960938 158.460938 110.46875 157.964844 C 109.515625 157.011719 109.515625 155.425781 110.46875 154.472656 L 118.65625 146.320312 L 110.46875 138.167969 C 109.515625 137.214844 109.515625 135.628906 110.46875 134.675781 C 111.421875 133.722656 113.007812 133.722656 113.960938 134.675781 L 123.914062 144.554688 C 124.371094 145.015625 124.652344 145.648438 124.652344 146.320312 C 124.652344 146.992188 124.40625 147.589844 123.914062 148.085938 L 113.960938 157.964844 C 113.46875 158.460938 112.832031 158.671875 112.230469 158.671875 Z M 112.230469 158.707031 " fill-opacity="1" fill-rule="nonzero"/></svg>