<svg xmlns="http://www.w3.org/2000/svg" xmlns:xlink="http://www.w3.org/1999/xlink" width="320" zoomAndPan="magnify" viewBox="0 0 240 247.92" height="320" preserveAspectRatio="xMidYMid meet" version="1.0"><defs><clipPath id="d37fc56d67"><path d="M 17.945312 19.5625 L 221.878906 19.5625 L 221.878906 220.5 L 17.945312 220.5 Z M 17.945312 19.5625 " clip-rule="nonzero"/></clipPath></defs><g clip-path="url(#d37fc56d67)"><path fill="#ffffff" d="M 143.105469 172.222656 C 137.660156 176.464844 131.535156 179.875 124.917969 182.265625 C 117.882812 184.804688 110.316406 186.1875 102.445312 186.1875 C 84.164062 186.1875 67.613281 178.777344 55.628906 166.796875 C 43.648438 154.816406 36.238281 138.265625 36.238281 119.980469 C 36.238281 101.699219 43.648438 85.148438 55.628906 73.167969 C 67.613281 61.1875 84.164062 53.777344 102.445312 53.777344 C 120.726562 53.777344 137.277344 61.1875 149.257812 73.167969 C 161.242188 85.148438 168.652344 101.699219 168.652344 119.980469 C 168.652344 126.816406 167.609375 133.421875 165.671875 139.648438 C 163.898438 145.351562 161.378906 150.726562 158.21875 155.652344 L 162.199219 159.015625 L 202.457031 108.78125 C 204.109375 106.722656 206.449219 105.527344 208.890625 105.257812 C 211.332031 104.988281 213.882812 105.648438 215.945312 107.300781 L 218.460938 109.316406 C 220.519531 110.964844 221.714844 113.308594 221.984375 115.75 C 222.253906 118.191406 221.59375 120.742188 219.941406 122.804688 L 168.339844 187.1875 C 167.921875 187.710938 167.460938 188.105469 166.90625 188.40625 C 166.363281 188.699219 165.777344 188.867188 165.101562 188.933594 C 164.433594 188.996094 163.828125 188.945312 163.238281 188.761719 C 162.640625 188.574219 162.109375 188.273438 161.59375 187.839844 Z M 154.394531 152.421875 C 157.148438 148.019531 159.355469 143.246094 160.929688 138.191406 C 162.710938 132.453125 163.671875 126.335938 163.671875 119.980469 C 163.671875 103.074219 156.820312 87.765625 145.738281 76.6875 C 134.660156 65.605469 119.351562 58.753906 102.445312 58.753906 C 85.535156 58.753906 70.230469 65.605469 59.148438 76.6875 C 48.070312 87.765625 41.214844 103.074219 41.214844 119.980469 C 41.214844 136.890625 48.070312 152.195312 59.148438 163.277344 C 70.230469 174.355469 85.539062 181.210938 102.445312 181.210938 C 109.765625 181.210938 116.769531 179.9375 123.246094 177.597656 C 129.023438 175.511719 134.402344 172.578125 139.226562 168.949219 L 134.902344 165.296875 C 130.515625 168.445312 125.652344 170.972656 120.445312 172.75 C 114.792969 174.679688 108.734375 175.726562 102.445312 175.726562 C 87.050781 175.726562 73.117188 169.484375 63.027344 159.398438 C 52.941406 149.308594 46.703125 135.375 46.703125 119.980469 C 46.703125 112.710938 48.105469 105.75 50.652344 99.355469 C 53.300781 92.71875 57.175781 86.714844 62 81.628906 C 62.945312 80.636719 64.519531 80.597656 65.511719 81.542969 C 66.503906 82.484375 66.542969 84.058594 65.597656 85.050781 C 61.199219 89.691406 57.664062 95.15625 55.261719 101.183594 C 53.242188 106.253906 52.015625 111.742188 51.738281 117.492188 L 57.574219 117.492188 C 58.949219 117.492188 60.066406 118.609375 60.066406 119.980469 C 60.066406 121.355469 58.949219 122.472656 57.574219 122.472656 L 51.742188 122.472656 C 52.371094 135.5 57.910156 147.238281 66.546875 155.878906 C 75.1875 164.519531 86.925781 170.058594 99.957031 170.6875 L 99.957031 164.851562 C 99.957031 163.476562 101.070312 162.363281 102.445312 162.363281 C 103.820312 162.363281 104.933594 163.476562 104.933594 164.851562 L 104.933594 170.6875 C 109.789062 170.453125 114.460938 169.542969 118.851562 168.042969 C 123.191406 166.5625 127.261719 164.511719 130.980469 161.984375 L 126.734375 158.398438 C 124.722656 156.699219 123.585938 154.320312 123.378906 151.871094 C 123.171875 149.425781 123.898438 146.894531 125.601562 144.878906 L 127.570312 142.542969 C 127.640625 142.449219 127.714844 142.363281 127.796875 142.277344 C 129.488281 140.347656 131.8125 139.261719 134.207031 139.058594 C 136.589844 138.859375 139.058594 139.542969 141.046875 141.152344 C 141.140625 141.222656 141.234375 141.296875 141.320312 141.378906 L 146.296875 145.582031 C 148.300781 142.164062 149.914062 138.484375 151.074219 134.609375 C 152.238281 130.742188 152.949219 126.675781 153.152344 122.46875 L 147.3125 122.46875 C 145.941406 122.46875 144.824219 121.355469 144.824219 119.980469 C 144.824219 118.605469 145.941406 117.492188 147.3125 117.492188 L 153.148438 117.492188 C 152.519531 104.464844 146.980469 92.722656 138.339844 84.085938 C 129.703125 75.445312 117.960938 69.90625 104.933594 69.277344 L 104.933594 75.113281 C 104.933594 76.488281 103.820312 77.601562 102.445312 77.601562 C 101.070312 77.601562 99.957031 76.488281 99.957031 75.113281 L 99.957031 69.277344 C 95.066406 69.511719 90.292969 70.4375 85.757812 72.015625 C 80.4375 73.863281 75.433594 76.601562 70.941406 80.15625 C 69.867188 81.007812 68.308594 80.824219 67.460938 79.75 C 66.613281 78.675781 66.796875 77.117188 67.867188 76.269531 C 72.804688 72.359375 78.296875 69.355469 84.125 67.328125 C 89.980469 65.292969 96.160156 64.238281 102.445312 64.238281 C 117.839844 64.238281 131.773438 70.476562 141.863281 80.566406 C 151.949219 90.652344 158.1875 104.589844 158.1875 119.980469 C 158.1875 125.550781 157.367188 130.9375 155.839844 136.027344 C 154.480469 140.566406 152.554688 144.859375 150.144531 148.832031 Z M 160.941406 164.449219 L 145.316406 151.257812 C 145.292969 151.238281 145.273438 151.21875 145.25 151.199219 L 137.988281 145.070312 C 137.03125 144.261719 135.808594 143.917969 134.617188 144.019531 C 133.429688 144.117188 132.28125 144.660156 131.46875 145.625 L 129.390625 148.085938 C 128.582031 149.046875 128.238281 150.269531 128.339844 151.460938 C 128.4375 152.648438 128.980469 153.792969 129.945312 154.609375 L 164.621094 183.890625 L 216.070312 119.691406 C 216.859375 118.707031 217.175781 117.476562 217.042969 116.292969 C 216.914062 115.113281 216.335938 113.980469 215.347656 113.1875 L 212.835938 111.171875 C 211.847656 110.382812 210.621094 110.066406 209.4375 110.199219 C 208.253906 110.328125 207.121094 110.902344 206.328125 111.894531 L 164.480469 164.109375 C 163.621094 165.179688 162.058594 165.347656 160.988281 164.488281 Z M 186.921875 107.828125 C 186.070312 98.339844 183.738281 89.46875 180.207031 81.363281 C 172.894531 64.578125 160.425781 51.054688 145.269531 42.136719 C 130.121094 33.226562 112.277344 28.914062 94.191406 30.539062 C 87.167969 31.171875 80.109375 32.695312 73.167969 35.191406 L 77.777344 22.941406 C 78.261719 21.660156 77.613281 20.226562 76.328125 19.742188 C 75.046875 19.261719 73.613281 19.910156 73.128906 21.191406 L 66.546875 38.691406 C 66.0625 39.976562 66.710938 41.40625 67.996094 41.890625 L 85.492188 48.476562 C 86.777344 48.957031 88.207031 48.308594 88.691406 47.027344 C 89.175781 45.742188 88.527344 44.3125 87.242188 43.828125 L 75.804688 39.523438 C 82.035156 37.371094 88.347656 36.042969 94.621094 35.476562 C 111.660156 33.945312 128.476562 38.011719 142.761719 46.417969 C 157.035156 54.8125 168.769531 67.542969 175.65625 83.347656 C 178.988281 90.988281 181.183594 99.339844 181.984375 108.257812 C 182.101562 109.621094 183.304688 110.628906 184.667969 110.511719 C 186.03125 110.394531 187.042969 109.191406 186.921875 107.828125 Z M 17.964844 132.136719 C 18.820312 141.625 21.152344 150.496094 24.683594 158.601562 C 31.996094 175.386719 44.460938 188.90625 59.621094 197.828125 C 74.769531 206.738281 92.613281 211.050781 110.695312 209.425781 C 117.722656 208.792969 124.78125 207.269531 131.722656 204.773438 L 127.113281 217.019531 C 126.628906 218.304688 127.277344 219.738281 128.5625 220.21875 C 129.84375 220.703125 131.277344 220.054688 131.761719 218.773438 L 138.34375 201.273438 C 138.828125 199.988281 138.179688 198.558594 136.894531 198.074219 L 119.398438 191.488281 C 118.113281 191.007812 116.679688 191.65625 116.199219 192.9375 C 115.714844 194.222656 116.363281 195.652344 117.648438 196.136719 L 129.085938 200.441406 C 122.855469 202.59375 116.542969 203.921875 110.269531 204.484375 C 93.230469 206.019531 76.414062 201.953125 62.128906 193.546875 C 47.855469 185.152344 36.121094 172.417969 29.234375 156.617188 C 25.902344 148.976562 23.707031 140.625 22.90625 131.707031 C 22.789062 130.34375 21.585938 129.332031 20.222656 129.453125 C 18.859375 129.570312 17.847656 130.769531 17.964844 132.136719 Z M 102.445312 112.6875 C 100.429688 112.6875 98.609375 113.503906 97.289062 114.824219 C 95.96875 116.144531 95.152344 117.96875 95.152344 119.980469 C 95.152344 121.054688 95.382812 122.078125 95.800781 122.996094 L 70.269531 147.902344 C 69.285156 148.855469 69.261719 150.425781 70.21875 151.410156 C 71.175781 152.394531 72.746094 152.414062 73.730469 151.457031 L 99.269531 126.546875 C 100.230469 127.015625 101.304688 127.273438 102.445312 127.273438 C 104.460938 127.273438 106.28125 126.457031 107.601562 125.140625 C 108.921875 123.820312 109.738281 121.996094 109.738281 119.980469 C 109.738281 117.988281 108.9375 116.183594 107.640625 114.867188 L 119.921875 89.210938 C 120.511719 87.976562 119.988281 86.496094 118.753906 85.90625 C 117.519531 85.316406 116.039062 85.835938 115.449219 87.070312 L 103.171875 112.726562 C 102.929688 112.699219 102.6875 112.6875 102.445312 112.6875 Z M 104.082031 118.34375 C 103.664062 117.925781 103.085938 117.667969 102.445312 117.667969 C 101.804688 117.667969 101.226562 117.925781 100.808594 118.34375 C 100.390625 118.761719 100.128906 119.34375 100.128906 119.980469 C 100.128906 120.621094 100.390625 121.199219 100.808594 121.621094 C 101.226562 122.039062 101.804688 122.296875 102.445312 122.296875 C 103.085938 122.296875 103.664062 122.039062 104.082031 121.621094 C 104.5 121.199219 104.761719 120.621094 104.761719 119.980469 C 104.757812 119.34375 104.5 118.761719 104.082031 118.34375 Z M 104.082031 118.34375 " fill-opacity="1" fill-rule="evenodd"/></g></svg>