<svg xmlns="http://www.w3.org/2000/svg" xmlns:xlink="http://www.w3.org/1999/xlink" width="320" zoomAndPan="magnify" viewBox="0 0 240 247.92" height="320" preserveAspectRatio="xMidYMid meet" version="1.0"><defs><clipPath id="985b9a6d3c"><path d="M 33.078125 17.550781 L 207 17.550781 L 207 222.234375 L 33.078125 222.234375 Z M 33.078125 17.550781 " clip-rule="nonzero"/></clipPath></defs><g clip-path="url(#985b9a6d3c)"><path fill="#ffffff" d="M 118.429688 17.695312 C 122.9375 16.773438 125.75 20.664062 129.167969 22.925781 C 151.503906 37.710938 175.570312 47.304688 202.222656 51.285156 C 208.269531 53.632812 206.789062 63.828125 206.660156 69.261719 C 205.992188 97.140625 202.980469 138.886719 189.273438 163.28125 C 176.722656 185.613281 148.15625 209.449219 125.238281 220.652344 C 121.347656 222.550781 120.273438 223.046875 116.011719 221.285156 C 96.425781 213.1875 67.296875 188.0625 55.328125 170.5625 C 37.152344 143.992188 34.25 102.355469 33.320312 70.6875 C 33.207031 66.855469 32.828125 59.929688 33.371094 56.417969 C 34.390625 49.804688 45.648438 50 50.960938 48.773438 C 71.300781 44.070312 89.5 36.539062 107.09375 25.398438 C 109.414062 23.925781 116.703125 18.046875 118.429688 17.695312 Z M 193.304688 62.820312 C 167.054688 58.765625 141.625 47.839844 120.15625 32.382812 C 98.292969 47.621094 73.175781 58.742188 46.671875 62.820312 C 46.957031 80.730469 48.011719 99.011719 50.546875 116.785156 C 51.582031 124.050781 52.945312 132.035156 54.898438 139.09375 C 63.648438 170.722656 92.339844 192.578125 119.511719 208.25 C 146.914062 193.832031 176.15625 170.433594 184.976562 139.464844 C 190.574219 119.808594 192.746094 92.613281 193.328125 72.117188 C 193.414062 69.023438 193.230469 65.90625 193.304688 62.816406 Z M 193.304688 62.820312 " fill-opacity="1" fill-rule="nonzero"/></g><path fill="#ffffff" d="M 143.84375 110.378906 C 147.613281 110.851562 150.003906 112.664062 150.90625 116.40625 C 150.035156 128.214844 152.179688 141.933594 150.9375 153.511719 C 150.59375 156.734375 148.355469 159.542969 144.996094 159.949219 C 131.136719 161.621094 113.949219 158.695312 99.734375 159.917969 C 95.324219 161.304688 89.632812 159.007812 89.03125 154 C 87.636719 142.402344 90.007812 127.910156 89.152344 116.011719 C 89.960938 112.480469 92.695312 110.847656 96.136719 110.378906 C 96.03125 99.617188 95.117188 89.007812 103.796875 81.140625 C 114.683594 71.269531 131.839844 73.152344 139.808594 85.609375 C 144.921875 93.597656 143.710938 101.316406 143.839844 110.378906 Z M 135.699219 110.425781 L 135.699219 96.855469 C 135.699219 89.605469 127.136719 82.878906 120.203125 82.796875 C 113.160156 82.714844 104.277344 89.519531 104.277344 96.855469 L 104.277344 110.425781 Z M 124.75 147.5625 L 122.960938 135.949219 C 127.394531 132.859375 127.992188 125.914062 122.367188 123.996094 C 114.414062 121.289062 110.304688 131.183594 116.9375 135.871094 L 115.230469 147.558594 L 124.753906 147.558594 Z M 124.75 147.5625 " fill-opacity="1" fill-rule="nonzero"/></svg>